<svg width="14" height="12" viewBox="0 0 14 12" fill="none" xmlns="http://www.w3.org/2000/svg">
<g clip-path="url(#clip0_2826_6)">
<path d="M0 5.83347C0 5.98817 0.0614557 6.13654 0.170848 6.24593C0.280241 6.35533 0.42861 6.41678 0.583314 6.41678H12.0083L7.7537 10.6706C7.69951 10.7248 7.65652 10.7891 7.62719 10.8599C7.59786 10.9308 7.58276 11.0067 7.58276 11.0833C7.58276 11.1599 7.59786 11.2358 7.62719 11.3066C7.65652 11.3775 7.69951 11.4418 7.7537 11.496C7.8079 11.5502 7.87224 11.5932 7.94305 11.6225C8.01386 11.6518 8.08975 11.6669 8.1664 11.6669C8.24304 11.6669 8.31894 11.6518 8.38975 11.6225C8.46056 11.5932 8.5249 11.5502 8.57909 11.496L13.8289 6.24616C13.8832 6.19199 13.9262 6.12765 13.9555 6.05684C13.9849 5.98603 14 5.91012 14 5.83347C14 5.75681 13.9849 5.68091 13.9555 5.61009C13.9262 5.53928 13.8832 5.47495 13.8289 5.42077L8.57909 0.170944C8.46964 0.0614903 8.32119 -1.15328e-09 8.1664 0C8.01161 1.15328e-09 7.86316 0.0614903 7.7537 0.170944C7.64425 0.280397 7.58276 0.428848 7.58276 0.583639C7.58276 0.738429 7.64425 0.88688 7.7537 0.996333L12.0083 5.25015H0.583314C0.42861 5.25015 0.280241 5.31161 0.170848 5.421C0.0614557 5.53039 0 5.67876 0 5.83347Z" fill="#0C0C0D"/>
</g>
<defs>
<clipPath id="clip0_2826_6">
<rect width="14" height="11.6669" fill="white"/>
</clipPath>
</defs>
</svg>
